<?xml version="1.0" encoding="UTF-8"?>
<svg width="32" height="32" viewBox="0 0 32 32" fill="none" xmlns="http://www.w3.org/2000/svg">
  <path d="M28 16C28 22.6274 22.6274 28 16 28C9.37258 28 4 22.6274 4 16C4 9.37258 9.37258 4 16 4C22.6274 4 28 9.37258 28 16Z" fill="#3498DB"/>
  <path d="M22.5 15.5L19 13V11C19 9.89543 18.1046 9 17 9H15C13.8954 9 13 9.89543 13 11V13L9.5 15.5C9.18934 15.6877 9 16.0171 9 16.375V17.625C9 18.2842 9.67157 18.7765 10.3 18.5L13 17.5V19.5L11.5 20.5C11.1893 20.6877 11 21.0171 11 21.375V22.125C11 22.7842 11.6716 23.2765 12.3 23L16 21.5L19.7 23C20.3284 23.2765 21 22.7842 21 22.125V21.375C21 21.0171 20.8107 20.6877 20.5 20.5L19 19.5V17.5L21.7 18.5C22.3284 18.7765 23 18.2842 23 17.625V16.375C23 16.0171 22.8107 15.6877 22.5 15.5Z" fill="white"/>
</svg> 